<svg width="32" height="32" viewBox="0 0 32 32" fill="none" xmlns="http://www.w3.org/2000/svg">
<g clip-path="url(#clip0_2004_1229)">
<path d="M31.3321 2.1289L19.6312 10.588L17.7112 11.9793C16.6941 12.7307 15.3057 12.7307 14.2886 11.9793L12.3686 10.588L0.653809 2.14279C0.974931 1.6937 1.39889 1.32801 1.89025 1.07627C2.38161 0.824541 2.92609 0.694088 3.47818 0.695818H28.5216C29.0699 0.696302 29.6102 0.826374 30.0987 1.07542C30.5871 1.32447 31.0097 1.68545 31.3321 2.1289Z" fill="#3D89C7"/>
<path d="M0.653965 2.1428L12.3688 10.588L1.01573 21.941C0.692925 21.6174 0.437071 21.2334 0.262791 20.8108C0.0885109 20.3883 -0.000777238 19.9355 3.10081e-05 19.4784V4.17412C-0.00306637 3.44478 0.225957 2.73336 0.653965 2.1428ZM32 4.17412V19.4785C32.0008 19.9356 31.9116 20.3883 31.7373 20.8109C31.563 21.2334 31.3072 21.6175 30.9844 21.9411L19.6314 10.5881L31.3322 2.12891C31.7666 2.7223 32.0005 3.43872 32 4.17412Z" fill="#0E3454"/>
<path d="M20.8694 25.7393C19.9456 25.7393 19.4781 25.0436 19.4781 23.6523C19.5009 21.7084 17.9435 20.1142 15.9995 20.0914C14.0556 20.0686 12.4614 21.626 12.4386 23.57C12.4158 25.5139 13.9732 27.1081 15.9172 27.1309C16.4318 27.1369 16.9415 27.03 17.4104 26.8177C17.8792 26.6054 18.2958 26.2928 18.6308 25.9021C18.8575 26.2906 19.1856 26.6101 19.5799 26.8265C19.9742 27.0429 20.4199 27.148 20.8694 27.1306C23.652 27.1306 23.652 24.5122 23.652 23.6523C23.6521 19.4262 20.2261 16.0001 16 16C11.7738 15.9999 8.34779 19.4259 8.34766 23.6521C8.34759 27.8782 11.7735 31.3043 15.9997 31.3044C17.9852 31.3045 19.8931 30.5327 21.3202 29.1523C21.5964 28.8833 21.6023 28.4414 21.3334 28.1651C21.0645 27.8889 20.6225 27.883 20.3463 28.1519C17.8575 30.5523 13.894 30.4807 11.4935 27.992C9.09309 25.5032 9.1647 21.5397 11.6535 19.1392C14.1422 16.7388 18.1057 16.8104 20.5062 19.2992C21.6334 20.4678 22.2625 22.0287 22.2607 23.6524C22.2607 25.212 21.9101 25.7393 20.8694 25.7393ZM15.9999 25.7393C14.8473 25.7393 13.9129 24.8049 13.9129 23.6523C13.9129 22.4998 14.8473 21.5654 15.9999 21.5654C17.1525 21.5654 18.0868 22.4998 18.0868 23.6523C18.0868 24.8049 17.1525 25.7393 15.9999 25.7393Z" fill="#1466A7"/>
<path d="M19.6313 10.5879L17.7113 11.9792C16.6941 12.7306 15.3058 12.7306 14.2887 11.9792L12.3687 10.5879L1.01562 21.9409C1.33923 22.2637 1.72329 22.5196 2.14584 22.6938C2.56839 22.8681 3.02115 22.9574 3.47823 22.9566H6.99123C7.3676 17.9816 11.7057 14.2536 16.6807 14.63C21.1324 14.9668 24.6705 18.5049 25.0073 22.9566H28.5217C28.9788 22.9574 29.4315 22.8681 29.8541 22.6938C30.2766 22.5196 30.6607 22.2637 30.9843 21.9409L19.6313 10.5879Z" fill="#041B2E"/>
</g>
<defs>
<clipPath id="clip0_2004_1229">
<rect width="32" height="32" fill="white"/>
</clipPath>
</defs>
</svg>
